Coordinates
version=1
nRows=36
nColumns=38
inDegrees=no

Units are S.I. units (second, meters, Newtons, ...)
If the header above contains a line with 'inDegrees', this indicates whether rotational values are in degrees (yes) or radians (no).

endheader
time	pelvis_tilt	pelvis_list	pelvis_rotation	pelvis_tx	pelvis_ty	pelvis_tz	hip_flexion_r	hip_adduction_r	hip_rotation_r	knee_angle_r	ankle_angle_r	subtalar_angle_r	mtp_angle_r	hip_flexion_l	hip_adduction_l	hip_rotation_l	knee_angle_l	ankle_angle_l	subtalar_angle_l	mtp_angle_l	lumbar_extension	lumbar_bending	lumbar_rotation	arm_flex_r	arm_add_r	arm_rot_r	elbow_flex_r	pro_sup_r	wrist_flex_r	wrist_dev_r	arm_flex_l	arm_add_l	arm_rot_l	elbow_flex_l	pro_sup_l	wrist_flex_l	wrist_dev_l
8.0425	0.0566002	-0.0637795	-3.08482	-0.175639	0.99092	-0.0126844	0.0236421	-0.0824009	-0.374768	0.0736232	0.0725562	0	0	0.0511696	0.0159123	0.10727	0.0907337	0.0229992	0	0	-0.124891	-0.111732	0.151035	-1.56767	-0.754552	-1.5491	0.924638	0.683225	0	0	1.56231	-1.3961	0.823532	0.0367416	1.46626	0	0
8.0525	0.0568403	-0.0638148	-3.08467	-0.175693	0.99089	-0.0126478	0.0236869	-0.0824856	-0.374844	0.0734425	0.0725391	0	0	0.0511888	0.0160449	0.1075	0.0904109	0.0228003	0	0	-0.12485	-0.1116	0.150767	-1.56767	-0.754386	-1.55104	0.924802	0.683337	0	0	1.5622	-1.3966	0.826355	0.0367202	1.46616	0	0
8.06249	0.0570866	-0.0638471	-3.08452	-0.175742	0.990859	-0.0126107	0.0237448	-0.0825696	-0.37491	0.0732619	0.0725096	0	0	0.0512226	0.0161772	0.107728	0.0900952	0.0225909	0	0	-0.124827	-0.111453	0.150448	-1.56767	-0.754249	-1.55313	0.92501	0.683999	0	0	1.56209	-1.39719	0.829887	0.0366927	1.46605	0	0
8.07248	0.0573274	-0.0638803	-3.08439	-0.175788	0.990829	-0.0125724	0.0238011	-0.082658	-0.374967	0.0730765	0.072471	0	0	0.0512554	0.016315	0.107953	0.0897826	0.0223706	0	0	-0.124823	-0.111292	0.150106	-1.56767	-0.754131	-1.55539	0.925242	0.685067	0	0	1.56198	-1.39782	0.833956	0.0366618	1.46593	0	0
8.08247	0.057556	-0.0639184	-3.08427	-0.175832	0.990799	-0.012531	0.0238461	-0.0827576	-0.375011	0.0728816	0.0724237	0	0	0.0512741	0.0164653	0.108174	0.0894641	0.0221345	0	0	-0.124842	-0.111114	0.149762	-1.56768	-0.754021	-1.55795	0.925474	0.686441	0	0	1.56186	-1.39848	0.838547	0.0366279	1.46581	0	0
8.09246	0.0577698	-0.0639637	-3.08416	-0.175875	0.990771	-0.0124858	0.0238761	-0.0828707	-0.375042	0.072677	0.0723678	0	0	0.0512701	0.0166305	0.108392	0.0891314	0.0218793	0	0	-0.124884	-0.110915	0.149424	-1.56768	-0.753917	-1.56084	0.925697	0.688075	0	0	1.56175	-1.39915	0.843654	0.0365899	1.46568	0	0
8.10245	0.0579668	-0.0640143	-3.08407	-0.175915	0.990744	-0.0124391	0.0238941	-0.0829918	-0.375058	0.0724718	0.0723053	0	0	0.0512409	0.0168038	0.108602	0.0887817	0.0216069	0	0	-0.12495	-0.110707	0.149094	-1.56768	-0.753825	-1.56388	0.925925	0.689947	0	0	1.56163	-1.39982	0.849112	0.0365466	1.46555	0	0
8.11244	0.0581408	-0.0640644	-3.08399	-0.175954	0.99072	-0.0123969	0.0239054	-0.0831064	-0.375055	0.0722862	0.0722412	0	0	0.0511866	0.0169681	0.108799	0.0884205	0.0213277	0	0	-0.125038	-0.110518	0.148775	-1.56768	-0.753768	-1.56657	0.926195	0.691994	0	0	1.56151	-1.40046	0.854464	0.0364973	1.46542	0	0
8.12243	0.0582929	-0.0641139	-3.08393	-0.175992	0.990699	-0.0123604	0.0239108	-0.0832119	-0.375035	0.0721204	0.0721794	0	0	0.0511083	0.0171206	0.108983	0.0880483	0.0210467	0	0	-0.125138	-0.110358	0.148489	-1.56768	-0.753732	-1.56878	0.926503	0.694059	0	0	1.56139	-1.40103	0.859413	0.0364459	1.4653	0	0
8.13242	0.0584226	-0.0641612	-3.08387	-0.176028	0.990683	-0.0123312	0.0239122	-0.083304	-0.375	0.0719791	0.0721221	0	0	0.0510086	0.0172564	0.109154	0.0876698	0.0207699	0	0	-0.125245	-0.110238	0.148247	-1.56768	-0.75372	-1.57034	0.926849	0.696006	0	0	1.56127	-1.40149	0.863675	0.0363946	1.46519	0	0
8.14241	0.0585355	-0.0642096	-3.08383	-0.176064	0.990669	-0.0123071	0.0239094	-0.0833881	-0.374952	0.0718538	0.0720693	0	0	0.0508927	0.0173819	0.109312	0.0872878	0.0204975	0	0	-0.12535	-0.110153	0.148063	-1.56768	-0.753716	-1.5714	0.927211	0.697713	0	0	1.56115	-1.40184	0.867222	0.0363454	1.46508	0	0
8.1524	0.0586362	-0.0642598	-3.08379	-0.176099	0.990657	-0.0122868	0.023905	-0.0834666	-0.374894	0.0717411	0.07202	0	0	0.0507685	0.0174996	0.109455	0.0869085	0.0202307	0	0	-0.12545	-0.110099	0.147934	-1.56768	-0.753717	-1.57205	0.927577	0.699133	0	0	1.56103	-1.40208	0.870092	0.0362986	1.46499	0	0
8.16239	0.0587237	-0.0643091	-3.08375	-0.176133	0.990648	-0.0122721	0.023902	-0.0835342	-0.374825	0.071648	0.0719744	0	0	0.0506431	0.0176034	0.109578	0.0865452	0.0199771	0	0	-0.125546	-0.110081	0.147851	-1.56768	-0.753737	-1.57218	0.927955	0.700261	0	0	1.5609	-1.40221	0.872203	0.0362539	1.46491	0	0
8.17238	0.0588015	-0.0643586	-3.08373	-0.176165	0.99064	-0.0122607	0.0238998	-0.083595	-0.374748	0.0715681	0.0719321	0	0	0.0505237	0.0176972	0.109678	0.0862068	0.0197397	0	0	-0.125636	-0.110092	0.147814	-1.56768	-0.753767	-1.57194	0.928328	0.701064	0	0	1.56078	-1.40226	0.873649	0.0362122	1.46483	0	0
8.18237	0.0588711	-0.0644077	-3.0837	-0.176195	0.990634	-0.0122516	0.023899	-0.0836506	-0.374667	0.0715005	0.0718919	0	0	0.0504179	0.0177824	0.109757	0.0859048	0.0195227	0	0	-0.12572	-0.110124	0.147816	-1.56768	-0.753806	-1.5714	0.92869	0.701556	0	0	1.56065	-1.40222	0.874532	0.036173	1.46477	0	0
8.19236	0.0589282	-0.0644525	-3.08367	-0.176222	0.99063	-0.0122464	0.0239	-0.0836965	-0.374586	0.0714544	0.071855	0	0	0.050331	0.0178525	0.109811	0.0856535	0.0193342	0	0	-0.125805	-0.110186	0.147842	-1.56768	-0.75387	-1.57042	0.929051	0.701762	0	0	1.56052	-1.40211	0.874784	0.036136	1.46471	0	0
8.20236	0.0589741	-0.064494	-3.08363	-0.176246	0.990628	-0.0122432	0.0238997	-0.0837372	-0.374512	0.0714232	0.071822	0	0	0.0502654	0.0179127	0.109845	0.0854566	0.0191754	0	0	-0.12589	-0.110268	0.147891	-1.56768	-0.753947	-1.56914	0.929403	0.701667	0	0	1.56039	-1.40193	0.874489	0.0361021	1.46466	0	0
8.21235	0.0590095	-0.064532	-3.08359	-0.176267	0.990627	-0.0122412	0.0238973	-0.0837746	-0.374448	0.0714048	0.0717927	0	0	0.0502221	0.017965	0.109864	0.0853143	0.019046	0	0	-0.125977	-0.110367	0.147957	-1.56768	-0.754033	-1.56764	0.929745	0.701293	0	0	1.56025	-1.40168	0.87373	0.0360712	1.46461	0	0
8.22234	0.0590329	-0.0645647	-3.08353	-0.176285	0.990627	-0.0122415	0.0238928	-0.083806	-0.374396	0.0714021	0.0717686	0	0	0.0501998	0.0180066	0.109872	0.0852251	0.0189461	0	0	-0.126069	-0.110487	0.14803	-1.56768	-0.754134	-1.56586	0.930088	0.700675	0	0	1.56012	-1.40138	0.872493	0.0360436	1.46458	0	0
8.23233	0.0590504	-0.0645958	-3.08346	-0.1763	0.990629	-0.0122407	0.0238853	-0.0838391	-0.374356	0.0714023	0.0717488	0	0	0.0501969	0.0180469	0.109879	0.0851773	0.0188687	0	0	-0.126164	-0.110613	0.148115	-1.56768	-0.754225	-1.56406	0.93042	0.699829	0	0	1.55999	-1.40104	0.870979	0.0360194	1.46454	0	0
8.24232	0.059072	-0.0646288	-3.08338	-0.176311	0.99063	-0.0122352	0.023878	-0.0838824	-0.37433	0.0713931	0.0717298	0	0	0.0502135	0.0180965	0.109892	0.0851563	0.0188032	0	0	-0.126259	-0.110727	0.148208	-1.56767	-0.75429	-1.56255	0.930732	0.69883	0	0	1.55985	-1.4007	0.869518	0.0359971	1.4645	0	0
8.25231	0.0591091	-0.0646658	-3.0833	-0.176319	0.990629	-0.0122221	0.0238781	-0.0839408	-0.374317	0.0713662	0.0717076	0	0	0.0502523	0.0181619	0.109919	0.0851476	0.0187406	0	0	-0.12635	-0.110814	0.148299	-1.56767	-0.754318	-1.56161	0.931021	0.697814	0	0	1.55971	-1.40039	0.868455	0.0359741	1.46445	0	0
8.2623	0.0591716	-0.0647071	-3.08322	-0.176324	0.990625	-0.0122001	0.0238942	-0.0840159	-0.374312	0.0713182	0.0716789	0	0	0.0503161	0.0182454	0.109965	0.0851397	0.0186743	0	0	-0.126434	-0.110862	0.148374	-1.56767	-0.754306	-1.56138	0.931291	0.696939	0	0	1.55957	-1.40016	0.868076	0.0359484	1.4644	0	0
8.27229	0.0592624	-0.0647508	-3.08314	-0.176324	0.990618	-0.0121699	0.0239328	-0.0841042	-0.374313	0.0712549	0.0716423	0	0	0.0504067	0.0183431	0.11003	0.0851288	0.0186022	0	0	-0.126512	-0.11087	0.148418	-1.56767	-0.754265	-1.56185	0.931556	0.696352	0	0	1.55943	-1.40003	0.868499	0.0359179	1.46433	0	0
8.28228	0.0593749	-0.0647941	-3.08306	-0.176321	0.99061	-0.0121342	0.0239937	-0.0841992	-0.374316	0.0711877	0.0715988	0	0	0.0505204	0.0184473	0.110105	0.0851182	0.0185262	0	0	-0.126587	-0.110847	0.148422	-1.56767	-0.754212	-1.5628	0.931831	0.696144	0	0	1.55929	-1.4	0.869651	0.0358822	1.46426	0	0
8.29227	0.0594908	-0.0648319	-3.08298	-0.176314	0.990602	-0.0120984	0.0240699	-0.0842891	-0.374317	0.0711374	0.0715523	0	0	0.0506468	0.0185432	0.110179	0.0851187	0.018455	0	0	-0.12667	-0.110819	0.148382	-1.56767	-0.754179	-1.56381	0.932138	0.696323	0	0	1.55914	-1.40006	0.871191	0.0358417	1.46419	0	0
8.30226	0.0595968	-0.0648647	-3.08291	-0.176306	0.990596	-0.0120631	0.0241476	-0.0843734	-0.374318	0.0711052	0.0715057	0	0	0.0507731	0.0186299	0.110246	0.0851329	0.0183922	0	0	-0.126763	-0.11079	0.148314	-1.56767	-0.754163	-1.56477	0.932464	0.696787	0	0	1.559	-1.40017	0.872918	0.0357996	1.46412	0	0
8.31225	0.0596831	-0.0648925	-3.08283	-0.176297	0.990592	-0.0120288	0.0242157	-0.0844515	-0.374318	0.0710916	0.0714605	0	0	0.0508878	0.0187069	0.110305	0.0851611	0.0183394	0	0	-0.126868	-0.110765	0.14823	-1.56767	-0.754164	-1.56563	0.932798	0.697433	0	0	1.55885	-1.4003	0.874697	0.0357575	1.46405	0	0
8.32224	0.0597388	-0.0649126	-3.08275	-0.176288	0.990593	-0.0119984	0.0242671	-0.0845163	-0.374314	0.071105	0.0714193	0	0	0.0509816	0.0187659	0.110354	0.0852057	0.0183019	0	0	-0.126989	-0.110755	0.148133	-1.56767	-0.754196	-1.56613	0.933146	0.698173	0	0	1.5587	-1.40042	0.876275	0.0357167	1.46399	0	0
8.33223	0.0597617	-0.0649269	-3.08268	-0.176281	0.990597	-0.0119706	0.0242941	-0.0845714	-0.374308	0.071137	0.0713839	0	0	0.0510477	0.0188117	0.110394	0.0852618	0.0182781	0	0	-0.127125	-0.110758	0.14804	-1.56767	-0.754242	-1.56636	0.933495	0.698884	0	0	1.55855	-1.40052	0.877607	0.0356787	1.46393	0	0
8.34223	0.0597534	-0.0649377	-3.0826	-0.176276	0.990604	-0.0119438	0.0242932	-0.084621	-0.374303	0.0711798	0.0713546	0	0	0.0510834	0.0188498	0.110428	0.0853234	0.0182633	0	0	-0.127271	-0.110767	0.147956	-1.56767	-0.754295	-1.56642	0.933835	0.699501	0	0	1.5584	-1.4006	0.878752	0.0356436	1.46387	0	0
8.35222	0.0597153	-0.0649458	-3.08253	-0.176274	0.990614	-0.0119178	0.0242642	-0.0846662	-0.374298	0.0712311	0.0713326	0	0	0.0510882	0.0188818	0.110459	0.085387	0.0182545	0	0	-0.127426	-0.110783	0.147877	-1.56767	-0.754353	-1.56632	0.934169	0.700002	0	0	1.55825	-1.40066	0.879733	0.0356112	1.46381	0	0
8.36221	0.0596456	-0.0649499	-3.08245	-0.176274	0.990628	-0.0118953	0.0242092	-0.0847017	-0.374293	0.071298	0.0713209	0	0	0.0510627	0.0189017	0.110483	0.0854545	0.018254	0	0	-0.127589	-0.110818	0.147797	-1.56767	-0.754432	-1.56584	0.934517	0.700374	0	0	1.55809	-1.4007	0.880384	0.0355818	1.46376	0	0
8.3722	0.0595496	-0.0649534	-3.08237	-0.176276	0.990644	-0.0118752	0.0241289	-0.0847326	-0.374291	0.0713721	0.0713204	0	0	0.0510092	0.0189158	0.110504	0.0855214	0.01826	0	0	-0.127753	-0.110873	0.147725	-1.56767	-0.754519	-1.56506	0.934876	0.70055	0	0	1.55794	-1.4007	0.88071	0.035556	1.46371	0	0
8.38219	0.0594364	-0.0649599	-3.08229	-0.176281	0.990662	-0.0118546	0.0240269	-0.0847663	-0.374292	0.0714425	0.0713291	0	0	0.0509327	0.0189328	0.110528	0.0855818	0.0182686	0	0	-0.127909	-0.110935	0.147665	-1.56767	-0.7546	-1.56419	0.935231	0.700507	0	0	1.55778	-1.40067	0.880858	0.0355332	1.46366	0	0
8.39218	0.0593148	-0.0649722	-3.08221	-0.17629	0.99068	-0.0118311	0.0239071	-0.084809	-0.374299	0.0715003	0.0713433	0	0	0.0508386	0.0189601	0.110564	0.0856314	0.0182753	0	0	-0.128052	-0.110994	0.147617	-1.56766	-0.754665	-1.56347	0.93557	0.700277	0	0	1.55762	-1.40064	0.881058	0.0355118	1.46361	0	0
